<mxfile host="app.diagrams.net" agent="Mozilla/5.0 (Windows NT 10.0; Win64; x64) AppleWebKit/537.36 (KHTML, like Gecko) Chrome/136.0.0.0 Safari/537.36" version="27.0.9">
  <diagram name="第 1 页" id="JcK-7653hLYsVERBveQF">
    <mxGraphModel dx="837" dy="503" grid="1" gridSize="10" guides="1" tooltips="1" connect="1" arrows="1" fold="1" page="1" pageScale="1" pageWidth="827" pageHeight="1169" math="0" shadow="0">
      <root>
        <mxCell id="0" />
        <mxCell id="1" parent="0" />
        <mxCell id="DsCfS5-gN96dnzd_P0CQ-1" value="&lt;font style=&quot;vertical-align: inherit;&quot; class=&quot;notranslate fyzs-translate-target fyzs-translate-target-wrapper&quot;&gt;&lt;font style=&quot;vertical-align: inherit;&quot; class=&quot;notranslate fyzs-translate-target fyzs-translate-target-box&quot;&gt;&lt;font style=&quot;vertical-align: inherit;&quot; title=&quot;A&quot; class=&quot;notranslate fyzs-translate-target fyzs-translate-target-text&quot;&gt;A用户&lt;/font&gt;&lt;/font&gt;&lt;/font&gt;" style="shape=umlActor;verticalLabelPosition=bottom;verticalAlign=top;html=1;outlineConnect=0;fillColor=#fff2cc;strokeColor=#d6b656;fontSize=16;" vertex="1" parent="1">
          <mxGeometry x="230" y="130" width="30" height="60" as="geometry" />
        </mxCell>
        <mxCell id="DsCfS5-gN96dnzd_P0CQ-4" value="&lt;font style=&quot;vertical-align: inherit;&quot; class=&quot;notranslate fyzs-translate-target fyzs-translate-target-wrapper&quot;&gt;&lt;font style=&quot;vertical-align: inherit;&quot; class=&quot;notranslate fyzs-translate-target fyzs-translate-target-box&quot;&gt;&lt;font style=&quot;vertical-align: inherit;&quot; title=&quot;B&quot; class=&quot;notranslate fyzs-translate-target fyzs-translate-target-text&quot;&gt;B用户&lt;/font&gt;&lt;/font&gt;&lt;/font&gt;" style="shape=umlActor;verticalLabelPosition=bottom;verticalAlign=top;html=1;outlineConnect=0;fillColor=#fff2cc;strokeColor=#d6b656;fontSize=16;" vertex="1" parent="1">
          <mxGeometry x="230" y="270" width="30" height="60" as="geometry" />
        </mxCell>
        <mxCell id="DsCfS5-gN96dnzd_P0CQ-8" value="" style="rounded=0;whiteSpace=wrap;html=1;fillColor=#fff2cc;strokeColor=#d6b656;fontSize=16;" vertex="1" parent="1">
          <mxGeometry x="470" y="140" width="290" height="190" as="geometry" />
        </mxCell>
        <mxCell id="DsCfS5-gN96dnzd_P0CQ-9" value="&lt;font style=&quot;vertical-align: inherit;&quot; class=&quot;notranslate fyzs-translate-target fyzs-translate-target-wrapper&quot;&gt;&lt;font style=&quot;vertical-align: inherit;&quot; class=&quot;notranslate fyzs-translate-target fyzs-translate-target-box&quot;&gt;&lt;font style=&quot;vertical-align: inherit;&quot; title=&quot;d&quot; class=&quot;notranslate fyzs-translate-target fyzs-translate-target-text&quot;&gt;大文件上传接口&lt;/font&gt;&lt;/font&gt;&lt;/font&gt;" style="rounded=0;whiteSpace=wrap;html=1;fillColor=#fff2cc;strokeColor=#d6b656;fontSize=16;" vertex="1" parent="1">
          <mxGeometry x="500" y="160" width="230" height="40" as="geometry" />
        </mxCell>
        <mxCell id="DsCfS5-gN96dnzd_P0CQ-10" value="&lt;font style=&quot;vertical-align: inherit;&quot; class=&quot;notranslate fyzs-translate-target fyzs-translate-target-wrapper&quot;&gt;&lt;font style=&quot;vertical-align: inherit;&quot; class=&quot;notranslate fyzs-translate-target fyzs-translate-target-box&quot;&gt;&lt;font style=&quot;vertical-align: inherit;&quot; title=&quot;d&quot; class=&quot;notranslate fyzs-translate-target fyzs-translate-target-text&quot;&gt;小文件上传接口&lt;/font&gt;&lt;/font&gt;&lt;/font&gt;" style="rounded=0;whiteSpace=wrap;html=1;fillColor=#fff2cc;strokeColor=#d6b656;fontSize=16;" vertex="1" parent="1">
          <mxGeometry x="500" y="220" width="230" height="40" as="geometry" />
        </mxCell>
        <mxCell id="DsCfS5-gN96dnzd_P0CQ-11" value="&lt;font style=&quot;vertical-align: inherit;&quot; class=&quot;notranslate fyzs-translate-target fyzs-translate-target-wrapper&quot;&gt;&lt;font style=&quot;vertical-align: inherit;&quot; class=&quot;notranslate fyzs-translate-target fyzs-translate-target-box&quot;&gt;&lt;font style=&quot;vertical-align: inherit;&quot; title=&quot;d&quot; class=&quot;notranslate fyzs-translate-target fyzs-translate-target-text&quot;&gt;文件秒传接口&lt;/font&gt;&lt;/font&gt;&lt;/font&gt;" style="rounded=0;whiteSpace=wrap;html=1;fillColor=#fff2cc;strokeColor=#d6b656;fontSize=16;" vertex="1" parent="1">
          <mxGeometry x="500" y="280" width="230" height="40" as="geometry" />
        </mxCell>
        <mxCell id="DsCfS5-gN96dnzd_P0CQ-12" value="" style="shape=flexArrow;endArrow=classic;html=1;rounded=0;entryX=-0.007;entryY=0.208;entryDx=0;entryDy=0;entryPerimeter=0;fillColor=#fff2cc;strokeColor=#d6b656;fontSize=16;" edge="1" parent="1" target="DsCfS5-gN96dnzd_P0CQ-8">
          <mxGeometry width="50" height="50" relative="1" as="geometry">
            <mxPoint x="280" y="180" as="sourcePoint" />
            <mxPoint x="420" y="170" as="targetPoint" />
            <Array as="points">
              <mxPoint x="380" y="180" />
              <mxPoint x="450" y="180" />
            </Array>
          </mxGeometry>
        </mxCell>
        <mxCell id="DsCfS5-gN96dnzd_P0CQ-13" value="" style="shape=flexArrow;endArrow=classic;html=1;rounded=0;entryX=-0.007;entryY=0.208;entryDx=0;entryDy=0;entryPerimeter=0;fillColor=#fff2cc;strokeColor=#d6b656;fontSize=16;" edge="1" parent="1">
          <mxGeometry width="50" height="50" relative="1" as="geometry">
            <mxPoint x="280" y="299.65999999999997" as="sourcePoint" />
            <mxPoint x="468" y="299.65999999999997" as="targetPoint" />
            <Array as="points">
              <mxPoint x="380" y="299.65999999999997" />
              <mxPoint x="450" y="299.65999999999997" />
            </Array>
          </mxGeometry>
        </mxCell>
        <mxCell id="DsCfS5-gN96dnzd_P0CQ-14" value="&lt;font class=&quot;notranslate fyzs-translate-target fyzs-translate-target-wrapper&quot; style=&quot;vertical-align: inherit;&quot;&gt;&lt;font class=&quot;notranslate fyzs-translate-target fyzs-translate-target-box&quot; style=&quot;vertical-align: inherit;&quot;&gt;&lt;font class=&quot;notranslate fyzs-translate-target fyzs-translate-target-text&quot; title=&quot;Text&quot; style=&quot;vertical-align: inherit;&quot;&gt;1&lt;/font&gt;&lt;/font&gt;&lt;/font&gt;" style="text;html=1;align=center;verticalAlign=middle;resizable=0;points=[];autosize=1;strokeColor=none;fillColor=none;fontColor=light-dark(#eb0a0a, #ededed);" vertex="1" parent="1">
          <mxGeometry x="735" y="290" width="30" height="30" as="geometry" />
        </mxCell>
        <mxCell id="DsCfS5-gN96dnzd_P0CQ-15" value="&lt;font class=&quot;notranslate fyzs-translate-target fyzs-translate-target-wrapper&quot; style=&quot;vertical-align: inherit;&quot;&gt;&lt;font class=&quot;notranslate fyzs-translate-target fyzs-translate-target-box&quot; style=&quot;vertical-align: inherit;&quot;&gt;&lt;font class=&quot;notranslate fyzs-translate-target fyzs-translate-target-text&quot; title=&quot;Text&quot; style=&quot;vertical-align: inherit;&quot;&gt;2&lt;/font&gt;&lt;/font&gt;&lt;/font&gt;" style="text;html=1;align=center;verticalAlign=middle;resizable=0;points=[];autosize=1;strokeColor=none;fillColor=none;fontColor=light-dark(#eb0a0a, #ededed);" vertex="1" parent="1">
          <mxGeometry x="735" y="230" width="30" height="30" as="geometry" />
        </mxCell>
        <mxCell id="DsCfS5-gN96dnzd_P0CQ-16" value="&lt;font class=&quot;notranslate fyzs-translate-target fyzs-translate-target-wrapper&quot; style=&quot;vertical-align: inherit;&quot;&gt;&lt;font class=&quot;notranslate fyzs-translate-target fyzs-translate-target-box&quot; style=&quot;vertical-align: inherit;&quot;&gt;&lt;font class=&quot;notranslate fyzs-translate-target fyzs-translate-target-text&quot; title=&quot;Text&quot; style=&quot;vertical-align: inherit;&quot;&gt;2&lt;/font&gt;&lt;/font&gt;&lt;/font&gt;" style="text;html=1;align=center;verticalAlign=middle;resizable=0;points=[];autosize=1;strokeColor=none;fillColor=none;fontColor=light-dark(#eb0a0a, #ededed);" vertex="1" parent="1">
          <mxGeometry x="735" y="170" width="30" height="30" as="geometry" />
        </mxCell>
      </root>
    </mxGraphModel>
  </diagram>
</mxfile>
